<?xml version="1.0" standalone="no"?><!DOCTYPE svg PUBLIC "-//W3C//DTD SVG 1.1//EN" "http://www.w3.org/Graphics/SVG/1.1/DTD/svg11.dtd"><svg t="1596200159128" class="icon" viewBox="0 0 1024 1024" version="1.1" xmlns="http://www.w3.org/2000/svg" p-id="1095" xmlns:xlink="http://www.w3.org/1999/xlink" width="200" height="200"><defs><style type="text/css"></style></defs><path d="M123.6385189 161.29131293c376.58706717 115.55519374 564.88942706 232.02833294 564.88942705 349.45472284C688.52794595 628.70200888 500.22558606 747.57592747 123.6385189 867.40309789V161.29131293z" fill="#F8D02D" p-id="1096"></path><path d="M844.73752576 543.4919697a29.14476373 29.14476373 0 0 0-20.5831589-8.45568909c-7.76723001 0-15.18140302 3.05393323-20.58315776 8.47334172l-61.60825344 60.07245938-180.76461739 176.17489123a31.13952939 31.13952939 0 0 0-7.44947939 12.09216341l-32.21634958 106.92297728-2.08302991 7.13172879a28.54456889 28.54456889 0 0 0 5.15461576 25.10227456 30.09801443 30.09801443 0 0 0 31.82798848 10.25627362l116.79088981-33.61092152a25.77307989 25.77307989 0 0 0 12.35695616-7.27295089l1.65936242-1.58875194 24.16667648-23.42525838 19.82408817-20.23010304 10.75055162-10.46810624 44.73218161-43.65536142 119.33289131-116.38487496 20.56550628-20.23010303c5.66654749-5.24288 8.93231445-12.48052565 9.0558828-20.10653242a27.87376242 27.87376242 0 0 0-8.47334058-20.33601991L844.75517838 543.47431595zM664.27300637 880.46616576L600.26397355 898.77211362l-52.19931364 14.56355557 4.6250314-14.56355557 29.83322282-98.9262609 25.20819144-25.03166294 82.31498069 80.32021505-25.79073252 25.31410831z m122.43978353-119.15636395l-75.90701739 74.05347385-82.61507868-80.60266042 154.79735638-151.01965766 3.72473969 4.07779555 78.74911687 76.96618382-78.73146424 76.52486486z m99.33227463-97.03741213l-82.47385543-80.6026604 20.58315776-19.50633758 81.87366173 79.87889608-19.98296406 20.2301019zM298.06578233 276.03447808l53.98224554 105.19300322 53.99989931-105.19300322h50.84004807l-68.5987601 121.48653283h45.79134919v23.1251604h-59.66644565v29.10945848h59.66644565v23.26638365h-59.66644565v52.37584099h-44.73218162V473.03966606h-59.66644566v-22.98393827h59.66644566V420.96392191h-59.20747293v-23.42525838h45.4912512L247.2080805 276.03447808h50.85770183zM219.58145707 589.371582h364.45959736c15.18140302 0 22.77210453 8.82639758 22.77210568 26.47919275s-7.59070151 26.47919161-22.77210568 26.47919162H219.58145707c-15.18140302 0-22.77210453-8.82639758-22.77210454-26.47919162s7.59070151-26.47919161 22.77210454-26.47919275zM192.90808434 704.11474717h171.81465031c15.60507051 0 23.42525838 8.82639758 23.42525838 26.47919273s-7.82018787 26.47919161-23.42525838 26.47919161h-171.81465031c-15.62272313 0-23.42525838-8.82639758-23.42525839-26.47919161s7.80253525-26.47919161 23.42525839-26.47919273zM821.63001799 275.62846435a16.84076658 16.84076658 0 0 0-11.0506496-4.00718506 16.84076658 16.84076658 0 0 0-11.06830222 4.00718506l-110.17109163 95.67814655-55.00610787-47.76846221a16.84076658 16.84076658 0 0 0-11.06830222-4.00718506 16.84076658 16.84076658 0 0 0-11.06830223 4.00718506 12.30399829 12.30399829 0 0 0 0 19.08267122l66.23328484 57.53045675c1.76527929 1.44752867 3.90126706 2.50669739 6.23143708 3.10689223 3.44229547 1.00620971 7.16703517 1.00620971 10.59167687 0 1.90650141-0.74141696 3.63647545-1.74762667 5.15461576-2.98332274l121.23939384-105.29891897a12.71001202 12.71001202 0 0 0 4.6779904-9.67373141 12.71001202 12.71001202 0 0 0-4.6779904-9.67373142z" fill="#333333" p-id="1097"></path><path d="M935.66707029 178.30860686v290.81213838c0 11.73910869-10.16800939 21.27161799-22.7014929 21.27161799-12.53348466 0-22.68384142-9.5325093-22.68384142-21.28927061V178.32625948c0-7.8378405-6.77867293-14.17519445-15.14609778-14.17519332H148.88201443c-8.36742485 0-15.14609778 6.35500658-15.14609777 14.17519332v680.90359467c0 7.8378405 6.77867293 14.17519445 15.14609777 14.17519332H459.04161565c12.53348466 0 22.70149405 9.5325093 22.70149404 21.28927061 0 11.73910869-10.16800939 21.27161799-22.70149404 21.27161799H148.86436181C115.42996878 915.9482823 88.33292971 890.52825826 88.33292971 859.21220038V178.30860686c0-31.33371051 27.09704021-56.73608192 60.5314321-56.73608192H875.11798557c33.43439303 0 60.53143325 25.42002403 60.5314321 56.73608192z" fill="#333333" p-id="1098"></path></svg>