<?xml version="1.0" standalone="no"?><!DOCTYPE svg PUBLIC "-//W3C//DTD SVG 1.1//EN" "http://www.w3.org/Graphics/SVG/1.1/DTD/svg11.dtd"><svg t="1596200143551" class="icon" viewBox="0 0 1024 1024" version="1.1" xmlns="http://www.w3.org/2000/svg" p-id="826" xmlns:xlink="http://www.w3.org/1999/xlink" width="200" height="200"><defs><style type="text/css"></style></defs><path d="M544.28254815 521.82874075L874.14708148 690.64462222c26.94257778-52.67152592 42.35567408-112.50346667 42.35567407-175.73357036 0-26.57848889-2.66998518-52.55016297-7.76722963-77.67229631l-364.45297777 84.5899852z" fill="#8ADEFF" p-id="827"></path><path d="M902.30328889 395.61125925C857.76308148 231.6498963 707.87982222 111.13647408 529.96171852 111.13647408v368.82204444l372.34157037-84.34725927z" fill="#F04726" p-id="828"></path><path d="M848.5394963 405.80574815l53.64242962-12.1362963C857.76308148 229.70808888 707.87982222 109.0733037 529.96171852 109.0733037v44.78293333c147.456 16.74808889 269.6685037 116.75117037 318.57777778 251.94951112z" fill="#C12814" p-id="829"></path><path d="M478.86791111 179.46382222c-201.58388148 0-365.05979259 163.47591111-365.05979259 365.05979259s163.47591111 365.05979259 365.05979259 365.05979261c141.75194075 0 264.4498963-80.82773333 324.88865186-198.79253334L478.86791111 544.40225186V179.46382222z" fill="#FFE100" p-id="830"></path><path d="M555.20521482 897.20438518c-201.58388148 0-365.05979259-163.47591111-365.0597926-365.0597926 0-168.45179259 114.20254815-310.20373333 269.30441481-352.1953185-192.60302222 10.07312592-345.64171852 169.4226963-345.64171851 364.45297778 0 201.58388148 163.47591111 365.05979259 365.05979259 365.05979258 33.13208889 0 65.41463703-4.49042963 95.99810371-12.86447407-6.67496297 0.24272592-13.1072 0.60681482-19.6608 0.60681481z" fill="#B59B00" p-id="831"></path><path d="M478.86791111 927.54512593c-211.17155555 0-383.14287408-171.84995555-383.14287408-383.14287407s171.97131852-383.02151111 383.14287408-383.02151112c9.95176297 0 18.08308148 8.13131852 18.08308148 18.08308148v354.01576296l315.05825186 161.29137779c4.36906667 2.18453333 7.5245037 5.94678518 8.98085925 10.55857777 1.45635555 4.61179259 1.09226667 9.58767408-1.09226667 13.71401482-66.14281482 128.52337778-196.72936297 208.50157037-341.02992592 208.50157037z m-18.08308148-729.51277037c-182.89398518 9.46631111-328.89362963 161.29137778-328.89362963 346.3698963 0 191.38939259 155.58731852 346.97671111 346.97671111 346.97671111 124.76112592 0 237.99277037-65.77872592 300.13060741-173.06358519l-308.38328889-157.77185186c-6.06814815-3.15543703-9.8304-9.34494815-9.8304-16.01991111V198.03235556z" fill="#592900" p-id="832"></path><path d="M529.96171852 491.97345185c-2.66998518 0-5.33997037-0.9709037-7.5245037-2.66998519-2.79134815-2.3058963-4.61179259-5.82542222-4.6117926-9.46631111V111.13647408c0-6.5536 5.33997037-12.01493333 12.01493333-12.01493333 179.2530963 0 337.02494815 120.63478518 383.87105186 293.45564444 0.84954075 3.2768 0.36408889 6.5536-1.33499259 9.34494814-1.69908148 2.79134815-4.49042963 4.85451852-7.64586667 5.5826963L532.38897778 491.60936296c-0.72817778 0.24272592-1.45635555 0.36408889-2.42725926 0.36408889z m12.01493333-368.70068149v341.39401482l345.0349037-78.03638518c-46.8461037-151.94642963-185.92805925-258.26038518-345.0349037-263.35762964zM874.02571852 702.65955555c-1.94180741 0-3.76225185-0.36408889-5.5826963-1.33499259L538.69985185 532.50868149c-4.49042963-2.3058963-7.16041482-7.16041482-6.43223703-12.1362963 0.72817778-4.97588148 4.36906667-9.22358518 9.22358518-10.19448889l364.33161482-84.71134815c3.15543703-0.72817778 6.43223703-0.12136297 9.22358518 1.57771852 2.66998518 1.69908148 4.61179259 4.61179259 5.21860741 7.64586666 5.33997037 26.2144 8.13131852 53.15697778 8.13131851 80.09955555 0 63.59419259-14.68491852 124.63976297-43.69066667 181.1949037-2.06317037 4.2477037-6.31087408 6.67496297-10.67994073 6.67496297zM578.99235555 526.07644444l289.6933926 148.18417778c23.78714075-50.00154075 35.68071111-103.64397037 35.6807111-159.34957036 0-21.11715555-1.69908148-42.35567408-5.2186074-63.10874075l-320.1554963 74.27413333z" fill="#592900" p-id="833"></path><path d="M595.98317037 617.58411852l-11.89357037-1.82044443 18.08308148-112.7461926 11.89357037 1.82044443zM626.44527408 628.1426963l-11.77220741-1.94180741 21.60260741-133.74198519 11.89357037 1.94180742zM670.47575703 481.99134815l11.85716149 1.94908918-25.45345422 154.85064534-11.85594785-1.94908919zM704.65763555 471.18154903l11.85473423 1.96001186-29.097984 176.01270519-11.8535206-1.95879823zM738.62712889 460.76739318l11.85230696 1.97214816-32.80198163 197.16626962-11.85109333-1.97214814zM748.29368889 670.37700741l-11.89357037-1.9418074 36.40888889-218.21060743 11.89357037 1.94180743zM806.99938133 439.48882488l11.8498797 1.98307082-40.02914606 239.28043141-11.85109334-1.98185719zM809.2178963 691.49416296l-11.89357038-1.9418074 43.69066667-260.44491853 11.89357038 2.06317038zM874.96385422 418.54885925l11.84866608 1.99399349-47.38495527 281.47712001-11.84745244-1.99399349zM870.02074075 712.61131851l-11.89357038-2.06317036 51.09380741-302.43650371 11.89357037 1.94180741zM900.48284445 723.04853334l-11.89357037-1.82044446 54.73469629-323.67502221 11.89357038 2.06317036zM977.60415289 386.88283497l11.84623881 2.00491614-58.35616711 344.752128-11.84623881-2.00612978z" fill="#592900" p-id="834"></path></svg>