<?xml version="1.0" standalone="no"?><!DOCTYPE svg PUBLIC "-//W3C//DTD SVG 1.1//EN" "http://www.w3.org/Graphics/SVG/1.1/DTD/svg11.dtd"><svg t="1596200154288" class="icon" viewBox="0 0 1024 1024" version="1.1" xmlns="http://www.w3.org/2000/svg" p-id="962" xmlns:xlink="http://www.w3.org/1999/xlink" width="200" height="200"><defs><style type="text/css"></style></defs><path d="M838.087111 541.75288867l-13.767111-184.547555c-3.299556-44.259556-39.139556-80.099556-83.399111-83.285334l-183.978667-13.198222c-33.336889-2.389333-66.446222 9.898667-90.225778 33.678222L172.942222 588.17422267c-45.169778 45.169778-45.169778 118.670222 0 163.84l173.966222 173.966222c21.845333 21.845333 50.972444 33.905778 81.92 33.905778 30.947556 0 60.074667-12.060444 81.92-33.905778L804.408889 632.20622267c23.893333-23.893333 36.181333-56.888889 33.678222-90.453334z" fill="#A3A3A3" p-id="963"></path><path d="M864.142222 491.34933367l-13.767111-184.547556c-3.299556-44.259556-39.139556-80.099556-83.399111-83.285333l-183.978667-13.198222c-33.336889-2.389333-66.446222 9.898667-90.225777 33.678222L198.997333 537.77066667c-45.169778 45.169778-45.169778 118.670222 0 163.84l173.966223 173.966222c21.845333 21.845333 50.972444 33.905778 81.92 33.905778 30.947556 0 60.074667-12.060444 81.92-33.905778L830.577778 581.80266667c23.779556-23.893333 35.953778-56.888889 33.564444-90.453333z" fill="#FFD44D" p-id="964"></path><path d="M237.112889 692.50844467c3.072-2.958222 3.185778-7.964444 0.227555-11.036445-2.958222-3.072-7.964444-3.185778-11.036444-0.227555-3.072 2.958222-3.185778 7.964444-0.227556 11.036444 2.958222 3.072 7.964444 3.185778 11.036445 0.227556zM292.295111 693.64622267c3.072-2.958222 3.185778-7.964444 0.227556-11.036445-2.958222-3.072-7.964444-3.185778-11.036445-0.227555-3.072 2.958222-3.185778 7.964444-0.227555 11.036444 3.072 3.072 7.964444 3.185778 11.036444 0.227556zM238.250667 637.21244467c3.072-2.958222 3.185778-7.964444 0.227555-11.036445-2.958222-3.072-7.964444-3.185778-11.036444-0.227555-3.072 2.958222-3.185778 7.964444-0.227556 11.036444 2.958222 3.185778 7.964444 3.299556 11.036445 0.227556zM235.975111 747.69066667c3.072-2.958222 3.185778-7.964444 0.227556-11.036444-2.958222-3.072-7.964444-3.185778-11.036445-0.227556-3.072 2.958222-3.185778 7.964444-0.227555 11.036444 2.958222 3.072 7.964444 3.185778 11.036444 0.227556zM181.930667 691.37066667c3.072-2.958222 3.185778-7.964444 0.227555-11.036444-2.958222-3.072-7.964444-3.185778-11.036444-0.227556-3.072 2.958222-3.185778 7.964444-0.227556 11.036444 2.958222 3.072 7.850667 3.185778 11.036445 0.227556zM128.910222 579.86844467c3.072-2.958222 3.185778-7.964444 0.227556-11.036445-2.958222-3.072-7.964444-3.185778-11.036445-0.227555-3.072 2.958222-3.185778 7.964444-0.227555 11.036444 2.958222 3.072 7.964444 3.185778 11.036444 0.227556zM130.048 524.57244467c3.072-2.958222 3.185778-7.964444 0.227556-11.036445-2.958222-3.072-7.964444-3.185778-11.036445-0.227555-3.072 2.958222-3.185778 7.964444-0.227555 11.036444 2.958222 3.185778 7.964444 3.299556 11.036444 0.227556zM127.772444 635.05066667c3.072-2.958222 3.185778-7.964444 0.227556-11.036444-2.958222-3.072-7.964444-3.185778-11.036444-0.227556-3.072 2.958222-3.185778 7.964444-0.227556 11.036444 3.072 3.072 7.964444 3.185778 11.036444 0.227556zM183.068444 636.18844467c2.275556-2.275556 2.958222-5.575111 1.934223-8.419556-0.341333-0.910222-0.910222-1.820444-1.706667-2.616889l-0.568889-0.568889c-0.796444-0.682667-1.706667-1.137778-2.730667-1.479111-0.682667-0.227556-1.479111-0.341333-2.161777-0.341333-2.048 0-3.982222 0.682667-5.575111 2.161778-1.592889 1.479111-2.389333 3.527111-2.389334 5.461333 0 0.455111 0 1.024 0.113778 1.479111 0.227556 1.479111 0.910222 2.958222 2.048 4.096 0.796444 0.796444 1.592889 1.365333 2.503111 1.820445 2.844444 1.137778 6.144 0.568889 8.533333-1.592889zM349.752889 584.30577767c3.072-2.958222 3.185778-7.964444 0.227555-11.036444-2.958222-3.072-7.964444-3.185778-11.036444-0.227556-3.072 2.958222-3.185778 7.964444-0.227556 11.036445 2.958222 3.072 7.964444 3.185778 11.036445 0.227555zM405.048889 585.44355567c3.072-2.958222 3.185778-7.964444 0.227555-11.036445-2.958222-3.072-7.964444-3.185778-11.036444-0.227555-3.072 2.958222-3.185778 7.964444-0.227556 11.036444 2.958222 3.072 7.850667 3.185778 11.036445 0.227556zM350.890667 529.12355567c3.072-2.958222 3.185778-7.964444 0.227555-11.036445-2.958222-3.072-7.964444-3.185778-11.036444-0.227555-3.072 2.958222-3.185778 7.964444-0.227556 11.036444 2.958222 3.072 7.964444 3.185778 11.036445 0.227556zM348.615111 639.48799967c3.072-2.958222 3.185778-7.964444 0.227556-11.036444-2.958222-3.072-7.964444-3.185778-11.036445-0.227556-3.072 2.958222-3.185778 7.964444-0.227555 11.036445 3.072 3.185778 7.964444 3.185778 11.036444 0.227555zM294.570667 583.16799967c3.072-2.958222 3.185778-7.964444 0.227555-11.036444-2.958222-3.072-7.964444-3.185778-11.036444-0.227556-3.072 2.958222-3.185778 7.964444-0.227556 11.036445 2.958222 3.072 7.964444 3.185778 11.036445 0.227555zM293.432889 638.35022267c3.072-2.958222 3.185778-7.964444 0.227555-11.036445-2.958222-3.072-7.964444-3.185778-11.036444-0.227555-3.072 2.958222-3.185778 7.964444-0.227556 11.036444 2.958222 3.185778 7.964444 3.299556 11.036445 0.227556zM296.846222 472.68977767c3.072-2.958222 3.185778-7.964444 0.227556-11.036444-2.958222-3.072-7.964444-3.185778-11.036445-0.227556-3.072 2.958222-3.185778 7.964444-0.227555 11.036445 2.958222 3.185778 7.850667 3.299556 11.036444 0.227555zM242.688 416.36977767c3.072-2.958222 3.185778-7.964444 0.227556-11.036444-2.958222-3.072-7.964444-3.185778-11.036445-0.227556-3.072 2.958222-3.185778 7.964444-0.227555 11.036445 2.958222 3.185778 7.964444 3.299556 11.036444 0.227555zM240.526222 526.84799967c3.072-2.958222 3.185778-7.964444 0.227556-11.036444-2.958222-3.072-7.964444-3.185778-11.036445-0.227556-3.072 2.958222-3.185778 7.964444-0.227555 11.036445 2.958222 3.072 7.850667 3.185778 11.036444 0.227555zM186.368 470.52799967c3.072-2.958222 3.185778-7.964444 0.227556-11.036444-2.958222-3.072-7.964444-3.185778-11.036445-0.227556-3.072 2.958222-3.185778 7.964444-0.227555 11.036445 2.958222 3.072 7.964444 3.185778 11.036444 0.227555zM295.708444 527.98577767c2.275556-2.275556 2.958222-5.575111 1.934223-8.419555-0.341333-0.910222-0.910222-1.820444-1.706667-2.616889-1.251556-1.365333-2.958222-2.161778-4.778667-2.389334h-0.796444c-2.048 0-3.982222 0.682667-5.575111 2.161778-1.592889 1.479111-2.389333 3.527111-2.389334 5.461333 0 0.455111 0 1.024 0.113778 1.479112 0.227556 1.479111 0.910222 2.958222 2.048 4.096 0.796444 0.796444 1.592889 1.365333 2.503111 1.820444 2.958222 1.137778 6.257778 0.568889 8.647111-1.592889zM239.388444 582.03022267c2.389333-2.275556 2.958222-5.575111 1.934223-8.419556-0.341333-0.910222-0.910222-1.820444-1.706667-2.616889-0.910222-1.024-2.048-1.592889-3.299556-2.048-0.682667-0.227556-1.479111-0.341333-2.161777-0.341333-2.048 0-3.982222 0.682667-5.575111 2.161778-1.592889 1.479111-2.389333 3.527111-2.389334 5.461333 0 0.455111 0 1.024 0.113778 1.479111 0.227556 1.479111 0.910222 2.958222 2.048 4.096 0.796444 0.796444 1.592889 1.365333 2.503111 1.820444 2.844444 1.137778 6.144 0.682667 8.533333-1.592888zM462.392889 476.10311067c3.072-2.958222 3.185778-7.964444 0.227555-11.036444-2.958222-3.072-7.964444-3.185778-11.036444-0.227556-3.072 2.958222-3.185778 7.964444-0.227556 11.036445 3.072 3.072 7.964444 3.185778 11.036445 0.227555zM461.368889 531.28533367c3.072-2.958222 3.185778-7.964444 0.227555-11.036445-2.958222-3.072-7.964444-3.185778-11.036444-0.227555-3.072 2.958222-3.185778 7.964444-0.227556 11.036444 2.958222 3.185778 7.850667 3.185778 11.036445 0.227556zM407.210667 474.96533367c3.072-2.958222 3.185778-7.964444 0.227555-11.036445-2.958222-3.072-7.964444-3.185778-11.036444-0.227555-3.072 2.958222-3.185778 7.964444-0.227556 11.036444 2.958222 3.185778 7.964444 3.185778 11.036445 0.227556zM406.072889 530.14755567c3.072-2.958222 3.185778-7.964444 0.227555-11.036445-2.958222-3.072-7.964444-3.185778-11.036444-0.227555-3.072 2.958222-3.185778 7.964444-0.227556 11.036444 3.072 3.185778 7.964444 3.299556 11.036445 0.227556zM353.166222 418.64533367c3.072-2.958222 3.185778-7.964444 0.227556-11.036445-2.958222-3.072-7.964444-3.185778-11.036445-0.227555-3.072 2.958222-3.185778 7.964444-0.227555 11.036444 2.958222 3.072 7.850667 3.185778 11.036444 0.227556zM299.008 362.32533367c3.072-2.958222 3.185778-7.964444 0.227556-11.036445-2.958222-3.072-7.964444-3.185778-11.036445-0.227555-3.072 2.958222-3.185778 7.964444-0.227555 11.036444 2.958222 3.072 7.964444 3.185778 11.036444 0.227556zM408.348444 419.78311067c2.275556-2.275556 2.958222-5.575111 1.934223-8.419555-0.341333-0.910222-0.910222-1.820444-1.706667-2.616889-1.137778-1.137778-2.503111-1.934222-3.982222-2.275556-0.455111-0.113778-1.024-0.113778-1.479111-0.227555-2.048 0-3.982222 0.682667-5.575111 2.161778-1.592889 1.479111-2.389333 3.527111-2.389334 5.461333 0 0.455111 0 1.024 0.113778 1.479111 0.227556 1.479111 0.910222 2.958222 2.048 4.096 0.796444 0.796444 1.592889 1.365333 2.503111 1.820445 2.844444 1.251556 6.144 0.796444 8.533333-1.479112zM352.028444 473.82755567c0.341333-0.227556 0.568889-0.568889 0.796445-0.910222 1.706667-2.161778 2.048-5.006222 1.137778-7.509334-0.341333-0.910222-0.910222-1.820444-1.706667-2.616889-0.910222-1.024-2.048-1.592889-3.299556-2.048-0.682667-0.227556-1.479111-0.341333-2.161777-0.341333-2.048 0-3.982222 0.682667-5.575111 2.161778-1.592889 1.479111-2.389333 3.527111-2.389334 5.461333 0 0.455111 0 1.024 0.113778 1.479111 0.227556 1.479111 0.910222 2.958222 2.048 4.096 0.796444 0.796444 1.592889 1.365333 2.503111 1.820445 2.844444 1.137778 6.144 0.682667 8.533333-1.592889zM499.029333 852.47999967c-3.072 2.958222-3.185778 7.964444-0.227555 11.036445 2.958222 3.072 7.964444 3.185778 11.036444 0.227555 3.072-2.958222 3.185778-7.964444 0.227556-11.036444-2.958222-3.185778-7.964444-3.299556-11.036445-0.227556zM454.656 862.60622267c3.072-2.958222 3.185778-7.964444 0.227556-11.036445-2.958222-3.072-7.964444-3.185778-11.036445-0.227555-3.072 2.958222-3.185778 7.964444-0.227555 11.036444 2.958222 3.072 7.850667 3.185778 11.036444 0.227556zM345.315556 805.14844467c3.072-2.958222 3.185778-7.964444 0.227555-11.036445-2.958222-3.072-7.964444-3.185778-11.036444-0.227555-3.072 2.958222-3.185778 7.964444-0.227556 11.036444 2.958222 3.072 7.964444 3.185778 11.036445 0.227556zM400.497778 806.28622267c3.072-2.958222 3.185778-7.964444 0.227555-11.036445-2.958222-3.072-7.964444-3.185778-11.036444-0.227555-3.072 2.958222-3.185778 7.964444-0.227556 11.036444 2.958222 3.072 7.964444 3.185778 11.036445 0.227556zM346.453333 749.96622267c3.072-2.958222 3.185778-7.964444 0.227556-11.036445-2.958222-3.072-7.964444-3.185778-11.036445-0.227555-3.072 2.958222-3.185778 7.964444-0.227555 11.036444 2.958222 3.072 7.850667 3.185778 11.036444 0.227556zM344.177778 860.33066667c3.072-2.958222 3.185778-7.964444 0.227555-11.036444-2.958222-3.072-7.964444-3.185778-11.036444-0.227556-3.072 2.958222-3.185778 7.964444-0.227556 11.036444 2.958222 3.185778 7.964444 3.185778 11.036445 0.227556zM290.133333 804.01066667c3.072-2.958222 3.185778-7.964444 0.227556-11.036444-2.958222-3.072-7.964444-3.185778-11.036445-0.227556-3.072 2.958222-3.185778 7.964444-0.227555 11.036444 2.958222 3.072 7.850667 3.185778 11.036444 0.227556zM396.743111 863.17511067c0.910222-0.341333 1.820444-0.910222 2.616889-1.706666 0.796444-0.796444 1.365333-1.592889 1.820444-2.503111 1.251556-2.844444 0.682667-6.144-1.592888-8.533334-0.796444-0.796444-1.592889-1.365333-2.503112-1.820444-1.820444-0.796444-3.982222-0.796444-5.916444-0.113778-0.910222 0.341333-1.820444 0.910222-2.616889 1.706667-0.796444 0.796444-1.365333 1.592889-1.820444 2.503111-0.796444 1.820444-0.796444 3.982222-0.113778 5.916444 0.341333 0.910222 0.910222 1.820444 1.706667 2.616889 2.275556 2.275556 5.575111 2.958222 8.419555 1.934222zM287.857778 750.76266667c0.113778 0 0.341333-0.113778 0.455111-0.113778 0.113778 0 0.113778 0 0.227555-0.113778 0.910222-0.341333 1.820444-0.910222 2.616889-1.706666 1.479111-1.479111 2.275556-3.299556 2.389334-5.233778v-0.455111c0-1.934222-0.796444-3.868444-2.161778-5.347556-1.251556-1.365333-2.958222-2.161778-4.778667-2.389333h-0.796444c-2.048 0-3.982222 0.682667-5.575111 2.161778-1.137778 1.137778-1.934222 2.503111-2.275556 3.982222-0.113778 0.455111-0.113778 1.024-0.227555 1.479111 0 1.024 0.113778 2.048 0.455111 2.958222 0.341333 0.910222 0.910222 1.820444 1.706666 2.616889 0.227556 0.227556 0.568889 0.455111 0.796445 0.682667 2.275556 1.592889 4.892444 2.048 7.168 1.479111zM611.669333 744.27733367c-3.072 2.958222-3.185778 7.964444-0.227555 11.036444 2.958222 3.072 7.964444 3.185778 11.036444 0.227556 3.072-2.958222 3.185778-7.964444 0.227556-11.036445-2.958222-3.185778-7.964444-3.299556-11.036445-0.227555zM555.349333 798.32177767c-3.072 2.958222-3.185778 7.964444-0.227555 11.036445 2.958222 3.072 7.964444 3.185778 11.036444 0.227555 3.072-2.958222 3.185778-7.964444 0.227556-11.036444-2.958222-3.072-7.964444-3.185778-11.036445-0.227556zM567.296 754.40355567c3.072-2.958222 3.185778-7.964444 0.227556-11.036445-2.958222-3.072-7.964444-3.185778-11.036445-0.227555-3.072 2.958222-3.185778 7.964444-0.227555 11.036444 2.958222 3.072 7.850667 3.185778 11.036444 0.227556zM510.976 808.44799967c3.072-2.958222 3.185778-7.964444 0.227556-11.036444-2.958222-3.072-7.964444-3.185778-11.036445-0.227556-3.072 2.958222-3.185778 7.964444-0.227555 11.036445 2.958222 3.185778 7.850667 3.299556 11.036444 0.227555zM457.955556 696.94577767c3.072-2.958222 3.185778-7.964444 0.227555-11.036444-2.958222-3.072-7.964444-3.185778-11.036444-0.227556-3.072 2.958222-3.185778 7.964444-0.227556 11.036445 2.958222 3.072 7.964444 3.185778 11.036445 0.227555zM513.137778 698.08355567c3.072-2.958222 3.185778-7.964444 0.227555-11.036445-2.958222-3.072-7.964444-3.185778-11.036444-0.227555-3.072 2.958222-3.185778 7.964444-0.227556 11.036444 3.072 3.072 7.964444 3.185778 11.036445 0.227556zM459.093333 641.76355567c3.072-2.958222 3.185778-7.964444 0.227556-11.036445-2.958222-3.072-7.964444-3.185778-11.036445-0.227555-3.072 2.958222-3.185778 7.964444-0.227555 11.036444 2.958222 3.072 7.964444 3.185778 11.036444 0.227556zM456.817778 752.12799967c3.072-2.958222 3.185778-7.964444 0.227555-11.036444-2.958222-3.072-7.964444-3.185778-11.036444-0.227556-3.072 2.958222-3.185778 7.964444-0.227556 11.036445 3.072 3.185778 7.964444 3.299556 11.036445 0.227555zM402.773333 695.80799967c3.072-2.958222 3.185778-7.964444 0.227556-11.036444-2.958222-3.072-7.964444-3.185778-11.036445-0.227556-3.072 2.958222-3.185778 7.964444-0.227555 11.036445 2.958222 3.185778 7.964444 3.185778 11.036444 0.227555zM509.496889 754.97244467c0.910222-0.341333 1.820444-0.910222 2.616889-1.706667 0.796444-0.796444 1.365333-1.592889 1.820444-2.503111 1.251556-2.844444 0.682667-6.144-1.592889-8.533333-0.796444-0.796444-1.592889-1.365333-2.503111-1.820445-1.820444-0.796444-3.982222-0.796444-5.916444-0.113778-0.910222 0.341333-1.820444 0.910222-2.616889 1.706667-0.796444 0.796444-1.365333 1.592889-1.820445 2.503111-0.796444 1.820444-0.796444 3.982222-0.113777 5.916445 0.341333 0.910222 0.910222 1.820444 1.706666 2.616889 2.161778 2.389333 5.575111 2.958222 8.419556 1.934222zM401.635556 750.99022267c3.072-2.958222 3.185778-7.964444 0.227555-11.036445-2.958222-3.072-7.964444-3.185778-11.036444-0.227555-3.072 2.958222-3.185778 7.964444-0.227556 11.036444 2.958222 3.185778 7.964444 3.299556 11.036445 0.227556zM453.063111 809.01688867c0.910222-0.341333 1.820444-0.910222 2.616889-1.706666 0.796444-0.796444 1.365333-1.592889 1.820444-2.503112 1.251556-2.844444 0.682667-6.144-1.592888-8.533333-0.796444-0.796444-1.592889-1.365333-2.503112-1.820444-1.820444-0.796444-3.982222-0.796444-5.916444-0.113778-0.910222 0.341333-1.820444 0.910222-2.616889 1.706667-0.796444 0.796444-1.365333 1.592889-1.820444 2.503111-0.796444 1.820444-0.796444 3.982222-0.113778 5.916444 0.341333 0.910222 0.910222 1.820444 1.706667 2.616889 2.275556 2.389333 5.688889 3.072 8.419555 1.934222zM400.042667 642.67377767c1.365333-0.227556 2.730667-0.910222 3.868444-2.048l0.568889-0.568889c1.137778-1.365333 1.706667-2.958222 1.820444-4.664889 0.113778-1.820444-0.455111-3.527111-1.592888-5.12-0.227556-0.227556-0.341333-0.455111-0.568889-0.682666-0.910222-1.024-2.048-1.592889-3.299556-2.048-0.227556-0.113778-0.455111-0.113778-0.682667-0.227556-0.682667-0.113778-1.479111-0.227556-2.275555-0.113778-1.706667 0.113778-3.413333 0.796444-4.778667 2.161778-0.796444 0.796444-1.365333 1.592889-1.820444 2.503111-0.455111 1.137778-0.682667 2.389333-0.568889 3.640889 0 0.227556 0 0.455111 0.113778 0.796445 0.227556 1.479111 0.910222 2.958222 2.048 4.096 0.227556 0.227556 0.568889 0.455111 0.796444 0.682666 1.820444 1.479111 4.096 2.048 6.371556 1.592889zM344.177778 696.60444467c1.251556-0.341333 2.389333-0.910222 3.299555-1.934222 1.365333-1.251556 2.161778-2.958222 2.389334-4.664889 0-0.227556 0-0.568889 0.113777-0.796445 0-0.682667-0.113778-1.365333-0.227555-2.048 0-0.227556-0.113778-0.455111-0.227556-0.568889 0-0.113778-0.113778-0.227556-0.113777-0.341333-0.113778-0.341333-0.341333-0.682667-0.455112-0.910222-0.113778-0.113778-0.227556-0.341333-0.341333-0.455111-0.227556-0.341333-0.568889-0.682667-0.796444-1.024-0.796444-0.796444-1.592889-1.365333-2.503111-1.820445-2.844444-1.251556-6.144-0.682667-8.533334 1.592889-0.568889 0.568889-1.024 1.137778-1.479111 1.820445-0.227556 0.455111-0.455111 0.910222-0.568889 1.365333-0.113778 0.227556-0.113778 0.455111-0.227555 0.682667-0.568889 2.503111 0.113778 5.12 2.048 7.054222 0.227556 0.227556 0.568889 0.455111 0.796444 0.682666 1.934222 1.479111 4.551111 2.048 6.826667 1.365334zM667.989333 690.11911067c-3.072 2.958222-3.185778 7.964444-0.227555 11.036445 2.958222 3.072 7.964444 3.185778 11.036444 0.227555 3.072-2.958222 3.185778-7.964444 0.227556-11.036444-2.958222-3.072-7.964444-3.185778-11.036445-0.227556zM623.616 700.24533367c3.072-2.958222 3.185778-7.964444 0.227556-11.036445-2.958222-3.072-7.964444-3.185778-11.036445-0.227555-3.072 2.958222-3.185778 7.964444-0.227555 11.036444 2.958222 3.185778 7.964444 3.299556 11.036444 0.227556zM570.595556 588.74311067c3.072-2.958222 3.185778-7.964444 0.227555-11.036444-2.958222-3.072-7.964444-3.185778-11.036444-0.227556-3.072 2.958222-3.185778 7.964444-0.227556 11.036445 3.072 3.072 7.964444 3.185778 11.036445 0.227555zM569.457778 643.92533367c3.072-2.958222 3.185778-7.964444 0.227555-11.036445-2.958222-3.072-7.964444-3.185778-11.036444-0.227555-3.072 2.958222-3.185778 7.964444-0.227556 11.036444 3.072 3.185778 7.964444 3.299556 11.036445 0.227556zM515.413333 587.60533367c3.072-2.958222 3.185778-7.964444 0.227556-11.036445-2.958222-3.072-7.964444-3.185778-11.036445-0.227555-3.072 2.958222-3.185778 7.964444-0.227555 11.036444 2.958222 3.185778 7.964444 3.299556 11.036444 0.227556zM622.136889 646.76977767c0.910222-0.341333 1.820444-0.910222 2.616889-1.706667 0.796444-0.796444 1.365333-1.592889 1.820444-2.503111 1.251556-2.844444 0.682667-6.144-1.592889-8.533333-0.796444-0.796444-1.592889-1.365333-2.503111-1.820444-1.820444-0.796444-3.982222-0.796444-5.916444-0.113778-0.910222 0.341333-1.820444 0.910222-2.616889 1.706666-0.796444 0.796444-1.365333 1.592889-1.820445 2.503112-0.796444 1.820444-0.796444 3.982222-0.113777 5.916444 0.341333 0.910222 0.910222 1.820444 1.706666 2.616889 2.161778 2.389333 5.575111 2.958222 8.419556 1.934222zM514.275556 642.90133367c3.072-2.958222 3.185778-7.964444 0.227555-11.036445-2.958222-3.072-7.964444-3.185778-11.036444-0.227555-3.072 2.958222-3.185778 7.964444-0.227556 11.036444 2.958222 3.072 7.964444 3.185778 11.036445 0.227556zM565.816889 700.81422267c0.910222-0.341333 1.820444-0.910222 2.616889-1.706667 0.796444-0.796444 1.365333-1.592889 1.820444-2.503111 1.251556-2.844444 0.682667-6.144-1.592889-8.533334-0.796444-0.796444-1.592889-1.365333-2.503111-1.820444-1.820444-0.796444-3.982222-0.796444-5.916444-0.113778-0.910222 0.341333-1.820444 0.910222-2.616889 1.706667-0.796444 0.796444-1.365333 1.592889-1.820445 2.503111-0.796444 1.820444-0.796444 3.982222-0.113777 5.916444 0.341333 0.910222 0.910222 1.820444 1.706666 2.616889 2.161778 2.389333 5.575111 3.072 8.419556 1.934223zM516.551111 532.42311067c1.251556-1.251556 2.048-2.730667 2.275556-4.323555 0.341333-2.048-0.113778-4.209778-1.479111-6.030222-0.227556-0.227556-0.341333-0.455111-0.568889-0.682667-0.910222-1.024-2.048-1.592889-3.299556-2.048-0.227556-0.113778-0.455111-0.113778-0.682667-0.227556-0.682667-0.113778-1.479111-0.227556-2.275555-0.113777-1.706667 0.113778-3.413333 0.796444-4.778667 2.161777-0.568889 0.568889-1.024 1.137778-1.479111 1.820445-0.227556 0.455111-0.455111 0.910222-0.568889 1.365333-0.113778 0.227556-0.113778 0.455111-0.227555 0.682667-0.568889 2.503111 0.113778 5.12 2.048 7.054222 0.568889 0.568889 1.137778 1.024 1.706666 1.365333l0.113778 0.113778c1.137778 0.568889 2.389333 0.910222 3.640889 1.024 1.934222 0 3.982222-0.682667 5.575111-2.161778zM456.135111 588.62933367c1.479111-0.227556 2.958222-0.910222 4.096-2.048 1.365333-1.251556 2.161778-2.958222 2.389333-4.778667 0.227556-2.275556-0.455111-4.551111-2.161777-6.257778-1.820444-1.934222-4.551111-2.730667-6.940445-2.275555-0.455111 0.113778-1.024 0.227556-1.479111 0.455111l-1.365333 0.682666c-0.455111 0.227556-0.910222 0.568889-1.251556 1.024-0.568889 0.568889-1.024 1.137778-1.479111 1.820445-0.227556 0.455111-0.455111 0.910222-0.568889 1.365333-0.113778 0.227556-0.113778 0.455111-0.227555 0.682667-0.568889 2.503111 0.113778 5.12 2.048 7.054222 0.568889 0.568889 1.137778 1.024 1.706666 1.365333l0.113778 0.113778c1.592889 0.796444 3.413333 1.024 5.12 0.796445zM529.863111 476.33066667c3.072-2.958222 3.185778-7.964444 0.227556-11.036444-2.958222-3.072-7.964444-3.185778-11.036445-0.227556-3.072 2.958222-3.185778 7.964444-0.227555 11.036444 2.958222 3.072 7.964444 3.185778 11.036444 0.227556zM475.818667 420.01066667c3.072-2.958222 3.185778-7.964444 0.227555-11.036444-2.958222-3.072-7.964444-3.185778-11.036444-0.227556-3.072 2.958222-3.185778 7.964444-0.227556 11.036444 2.958222 3.072 7.850667 3.185778 11.036445 0.227556zM421.660444 363.69066667c3.072-2.958222 3.185778-7.964444 0.227556-11.036444-2.958222-3.072-7.964444-3.185778-11.036444-0.227556-3.072 2.958222-3.185778 7.964444-0.227556 11.036444 2.958222 3.072 7.964444 3.185778 11.036444 0.227556zM367.616 307.37066667c3.072-2.958222 3.185778-7.964444 0.227556-11.036444-2.958222-3.072-7.964444-3.185778-11.036445-0.227556-3.072 2.958222-3.185778 7.964444-0.227555 11.036444 2.958222 3.072 7.850667 3.185778 11.036444 0.227556zM587.320889 366.99022267c3.072-2.958222 3.185778-7.964444 0.227555-11.036445-2.958222-3.072-7.964444-3.185778-11.036444-0.227555-3.072 2.958222-3.185778 7.964444-0.227556 11.036444 2.958222 3.185778 7.964444 3.299556 11.036445 0.227556zM642.503111 368.12799967c3.072-2.958222 3.185778-7.964444 0.227556-11.036444-2.958222-3.072-7.964444-3.185778-11.036445-0.227556-3.072 2.958222-3.185778 7.964444-0.227555 11.036445 2.958222 3.185778 7.964444 3.185778 11.036444 0.227555zM588.458667 311.80799967c3.072-2.958222 3.185778-7.964444 0.227555-11.036444-2.958222-3.072-7.964444-3.185778-11.036444-0.227556-3.072 2.958222-3.185778 7.964444-0.227556 11.036445 2.958222 3.072 7.850667 3.185778 11.036445 0.227555zM586.183111 422.28622267c3.072-2.958222 3.185778-7.964444 0.227556-11.036445-2.958222-3.072-7.964444-3.185778-11.036445-0.227555-3.072 2.958222-3.185778 7.964444-0.227555 11.036444 2.958222 3.072 7.964444 3.185778 11.036444 0.227556zM532.138667 365.96622267c3.072-2.958222 3.185778-7.964444 0.227555-11.036445-2.958222-3.072-7.964444-3.185778-11.036444-0.227555-3.072 2.958222-3.185778 7.964444-0.227556 11.036444 2.958222 3.072 7.850667 3.185778 11.036445 0.227556zM531.000889 421.14844467c3.072-2.958222 3.185778-7.964444 0.227555-11.036445-2.958222-3.072-7.964444-3.185778-11.036444-0.227555-3.072 2.958222-3.185778 7.964444-0.227556 11.036444 2.958222 3.072 7.964444 3.185778 11.036445 0.227556zM581.745778 479.40266667c1.251556-0.341333 2.389333-0.910222 3.299555-1.934222l0.796445-0.796445c1.024-1.365333 1.592889-2.958222 1.592889-4.664889 0-1.251556-0.227556-2.503111-0.796445-3.640888 0-0.113778-0.113778-0.113778-0.113778-0.227556-0.113778-0.227556-0.227556-0.341333-0.341333-0.568889-0.227556-0.341333-0.568889-0.682667-0.796444-1.024-1.479111-1.592889-3.527111-2.389333-5.461334-2.389333-2.048 0-3.982222 0.682667-5.575111 2.161778-1.137778 1.137778-1.934222 2.503111-2.275555 3.982222-0.113778 0.455111-0.113778 1.024-0.227556 1.479111 0 1.024 0.113778 2.048 0.455111 2.958222l0.682667 1.365333c0.227556 0.455111 0.568889 0.910222 1.024 1.251556l0.682667 0.682667c2.048 1.479111 4.664889 1.934222 7.054222 1.365333zM534.300444 255.48799967c3.072-2.958222 3.185778-7.964444 0.227556-11.036444-2.958222-3.072-7.964444-3.185778-11.036444-0.227556-3.072 2.958222-3.185778 7.964444-0.227556 11.036445 3.072 3.072 7.964444 3.185778 11.036444 0.227555zM480.256 199.16799967c3.072-2.958222 3.185778-7.964444 0.227556-11.036444-2.958222-3.072-7.964444-3.185778-11.036445-0.227556-3.072 2.958222-3.185778 7.964444-0.227555 11.036445 2.958222 3.072 7.964444 3.185778 11.036444 0.227555zM477.980444 309.53244467c3.072-2.958222 3.185778-7.964444 0.227556-11.036445-2.958222-3.072-7.964444-3.185778-11.036444-0.227555-3.072 2.958222-3.185778 7.964444-0.227556 11.036444 2.958222 3.185778 7.964444 3.299556 11.036444 0.227556zM423.936 253.21244467c3.072-2.958222 3.185778-7.964444 0.227556-11.036445-2.958222-3.072-7.964444-3.185778-11.036445-0.227555-3.072 2.958222-3.185778 7.964444-0.227555 11.036444 2.958222 3.185778 7.850667 3.299556 11.036444 0.227556zM533.276444 310.67022267c2.275556-2.275556 2.958222-5.575111 1.934223-8.419556-0.341333-0.910222-0.910222-1.820444-1.706667-2.616889l-0.568889-0.568889c-0.796444-0.682667-1.706667-1.137778-2.730667-1.479111-0.682667-0.227556-1.479111-0.341333-2.161777-0.341333-2.048 0-3.982222 0.682667-5.575111 2.161778-1.592889 1.479111-2.389333 3.527111-2.389334 5.461333 0 0.455111 0 1.024 0.113778 1.479111 0.227556 1.479111 0.910222 2.958222 2.048 4.096 0.796444 0.796444 1.592889 1.365333 2.503111 1.820444 2.730667 1.137778 6.144 0.682667 8.533333-1.592888zM476.842667 364.82844467c2.389333-2.275556 2.958222-5.575111 1.934222-8.419556-0.341333-0.910222-0.910222-1.820444-1.706667-2.616889-1.137778-1.137778-2.503111-1.934222-3.982222-2.275555-0.455111-0.113778-1.024-0.113778-1.479111-0.227556-2.048 0-3.982222 0.682667-5.575111 2.161778-1.592889 1.479111-2.389333 3.527111-2.389334 5.461333 0 0.455111 0 1.024 0.113778 1.479111 0.227556 1.479111 0.910222 2.958222 2.048 4.096 0.796444 0.796444 1.592889 1.365333 2.503111 1.820445 2.844444 1.251556 6.257778 0.682667 8.533334-1.479111zM425.073778 198.03022267c2.275556-2.275556 2.958222-5.575111 1.934222-8.419556-0.341333-0.910222-0.910222-1.820444-1.706667-2.616889-0.796444-0.796444-1.592889-1.365333-2.503111-1.820444-0.910222-0.455111-1.934222-0.568889-2.958222-0.682667-2.048 0-3.982222 0.682667-5.575111 2.161778-1.365333 1.251556-2.161778 2.958222-2.389333 4.778666v0.796445c0 1.024 0.113778 2.048 0.455111 2.958222 0.341333 0.910222 0.910222 1.820444 1.706666 2.616889 0.796444 0.796444 1.592889 1.365333 2.503111 1.820444 2.844444 1.137778 6.144 0.682667 8.533334-1.592888zM368.753778 252.18844467c2.389333-2.275556 2.958222-5.575111 1.934222-8.419556-0.341333-0.910222-0.910222-1.820444-1.706667-2.616889-0.796444-0.796444-1.592889-1.365333-2.503111-1.820444-0.910222-0.455111-1.934222-0.568889-2.958222-0.682667-2.048 0-3.982222 0.682667-5.575111 2.161778-1.251556 1.137778-1.934222 2.616889-2.275556 4.096-0.113778 0.455111-0.113778 0.910222-0.113777 1.365333 0 1.024 0.113778 2.048 0.455111 2.958223 0.341333 0.910222 0.910222 1.820444 1.706666 2.616888 0.796444 0.796444 1.592889 1.365333 2.503111 1.820445 2.730667 1.251556 6.144 0.682667 8.533334-1.479111zM699.960889 258.78755567c3.072-2.958222 3.185778-7.964444 0.227555-11.036445-2.958222-3.072-7.964444-3.185778-11.036444-0.227555-3.072 2.958222-3.185778 7.964444-0.227556 11.036444 2.958222 3.185778 7.964444 3.299556 11.036445 0.227556zM755.143111 259.92533367c3.072-2.958222 3.185778-7.964444 0.227556-11.036445-2.958222-3.072-7.964444-3.185778-11.036445-0.227555-3.072 2.958222-3.185778 7.964444-0.227555 11.036444 3.072 3.185778 7.964444 3.185778 11.036444 0.227556zM698.823111 314.08355567c3.072-2.958222 3.185778-7.964444 0.227556-11.036445-2.958222-3.072-7.964444-3.185778-11.036445-0.227555-3.072 2.958222-3.185778 7.964444-0.227555 11.036444 3.072 3.072 7.964444 3.185778 11.036444 0.227556zM644.778667 257.76355567c3.072-2.958222 3.185778-7.964444 0.227555-11.036445-2.958222-3.072-7.964444-3.185778-11.036444-0.227555-3.072 2.958222-3.185778 7.964444-0.227556 11.036444 2.958222 3.072 7.850667 3.185778 11.036445 0.227556zM643.640889 312.94577767c3.072-2.958222 3.185778-7.964444 0.227555-11.036444-2.958222-3.072-7.964444-3.185778-11.036444-0.227556-3.072 2.958222-3.185778 7.964444-0.227556 11.036445 2.958222 3.072 7.964444 3.185778 11.036445 0.227555zM591.758222 146.14755567c3.072-2.958222 3.185778-7.964444 0.227556-11.036445-2.958222-3.072-7.964444-3.185778-11.036445-0.227555-3.072 2.958222-3.185778 7.964444-0.227555 11.036444 2.958222 3.185778 7.964444 3.299556 11.036444 0.227556zM647.054222 147.28533367c3.072-2.958222 3.185778-7.964444 0.227556-11.036445-2.958222-3.072-7.964444-3.185778-11.036445-0.227555-3.072 2.958222-3.185778 7.964444-0.227555 11.036444 2.958222 3.185778 7.850667 3.185778 11.036444 0.227556zM536.576 145.00977767c3.072-2.958222 3.185778-7.964444 0.227556-11.036444-2.958222-3.072-7.964444-3.185778-11.036445-0.227556-3.072 2.958222-3.185778 7.964444-0.227555 11.036445 2.958222 3.185778 7.964444 3.299556 11.036444 0.227555zM589.596444 256.62577767c2.389333-2.275556 2.958222-5.575111 1.934223-8.419555-0.341333-0.910222-0.910222-1.820444-1.706667-2.616889-0.910222-1.024-2.048-1.592889-3.299556-2.048-0.682667-0.227556-1.479111-0.341333-2.161777-0.341334-2.048 0-3.982222 0.682667-5.575111 2.161778-1.592889 1.479111-2.389333 3.527111-2.389334 5.461333 0 0.455111 0 1.024 0.113778 1.479112 0.227556 1.479111 0.910222 2.958222 2.048 4.096 0.796444 0.796444 1.592889 1.365333 2.503111 1.820444 2.844444 1.137778 6.144 0.682667 8.533333-1.592889zM481.393778 143.98577767c2.389333-2.275556 2.958222-5.575111 1.934222-8.419555-0.341333-0.910222-0.910222-1.820444-1.706667-2.616889-0.796444-0.796444-1.592889-1.365333-2.503111-1.820445-0.910222-0.455111-1.934222-0.568889-2.958222-0.682666-2.048 0-3.982222 0.682667-5.575111 2.161777-1.592889 1.479111-2.389333 3.527111-2.389333 5.461334 0 1.024 0.113778 2.048 0.455111 2.958222 0.341333 0.910222 0.910222 1.820444 1.706666 2.616889 0.796444 0.796444 1.592889 1.365333 2.503111 1.820444 2.844444 1.251556 6.144 0.682667 8.533334-1.479111zM812.600889 150.58488867c3.072-2.958222 3.185778-7.964444 0.227555-11.036444-2.958222-3.072-7.964444-3.185778-11.036444-0.227556-3.072 2.958222-3.185778 7.964444-0.227556 11.036445 3.072 3.185778 7.964444 3.299556 11.036445 0.227555zM757.418667 149.56088867c3.072-2.958222 3.185778-7.964444 0.227555-11.036444-2.958222-3.072-7.964444-3.185778-11.036444-0.227556-3.072 2.958222-3.185778 7.964444-0.227556 11.036445 2.958222 3.072 7.964444 3.185778 11.036445 0.227555zM702.236444 148.42311067c0.341333-0.227556 0.568889-0.568889 0.796445-0.910222 1.706667-2.161778 2.048-5.006222 1.137778-7.509333-0.341333-0.910222-0.910222-1.820444-1.706667-2.616889-0.910222-1.024-2.048-1.592889-3.299556-2.048-0.682667-0.227556-1.479111-0.341333-2.161777-0.341333-2.048 0-3.982222 0.682667-5.575111 2.161777-1.592889 1.479111-2.389333 3.527111-2.389334 5.461334 0 0.455111 0 1.024 0.113778 1.479111 0.227556 1.479111 0.910222 2.958222 2.048 4.096 0.796444 0.796444 1.592889 1.365333 2.503111 1.820444 2.844444 1.137778 6.144 0.682667 8.533333-1.592889zM736.597333 635.16444467c-3.072 2.958222-3.185778 7.964444-0.227555 11.036444 2.958222 3.072 7.964444 3.185778 11.036444 0.227556 3.072-2.958222 3.185778-7.964444 0.227556-11.036445-3.072-3.072-7.964444-3.185778-11.036445-0.227555zM692.110222 645.29066667c3.072-2.958222 3.185778-7.964444 0.227556-11.036444-2.958222-3.072-7.964444-3.185778-11.036445-0.227556-3.072 2.958222-3.185778 7.964444-0.227555 11.036444 3.072 3.185778 7.964444 3.299556 11.036444 0.227556zM638.065778 588.97066667c3.072-2.958222 3.185778-7.964444 0.227555-11.036444-2.958222-3.072-7.964444-3.185778-11.036444-0.227556-3.072 2.958222-3.185778 7.964444-0.227556 11.036444 2.958222 3.185778 7.964444 3.185778 11.036445 0.227556zM584.021333 532.65066667c3.072-2.958222 3.185778-7.964444 0.227556-11.036444-2.958222-3.072-7.964444-3.185778-11.036445-0.227556-3.072 2.958222-3.185778 7.964444-0.227555 11.036444 2.958222 3.185778 7.850667 3.185778 11.036444 0.227556zM849.237333 526.96177767c-3.072 2.958222-3.185778 7.964444-0.227555 11.036445 2.958222 3.072 7.964444 3.185778 11.036444 0.227555 3.072-2.958222 3.185778-7.964444 0.227556-11.036444-2.958222-3.072-7.964444-3.185778-11.036445-0.227556zM792.917333 581.11999967c-3.072 2.958222-3.185778 7.964444-0.227555 11.036445 2.958222 3.072 7.964444 3.185778 11.036444 0.227555 3.072-2.958222 3.185778-7.964444 0.227556-11.036444-2.958222-3.185778-7.964444-3.299556-11.036445-0.227556zM804.864 537.08799967c3.072-2.958222 3.185778-7.964444 0.227556-11.036444-2.958222-3.072-7.964444-3.185778-11.036445-0.227556-3.072 2.958222-3.185778 7.964444-0.227555 11.036445 2.958222 3.185778 7.850667 3.299556 11.036444 0.227555zM748.544 591.24622267c3.072-2.958222 3.185778-7.964444 0.227556-11.036445-2.958222-3.072-7.964444-3.185778-11.036445-0.227555-3.072 2.958222-3.185778 7.964444-0.227555 11.036444 2.958222 3.072 7.850667 3.185778 11.036444 0.227556zM695.523556 479.63022267c3.072-2.958222 3.185778-7.964444 0.227555-11.036445-2.958222-3.072-7.964444-3.185778-11.036444-0.227555-3.072 2.958222-3.185778 7.964444-0.227556 11.036444 2.958222 3.185778 7.964444 3.299556 11.036445 0.227556zM750.705778 480.76799967c3.072-2.958222 3.185778-7.964444 0.227555-11.036444-2.958222-3.072-7.964444-3.185778-11.036444-0.227556-3.072 2.958222-3.185778 7.964444-0.227556 11.036445 2.958222 3.185778 7.964444 3.299556 11.036445 0.227555zM696.661333 424.44799967c3.072-2.958222 3.185778-7.964444 0.227556-11.036444-2.958222-3.072-7.964444-3.185778-11.036445-0.227556-3.072 2.958222-3.185778 7.964444-0.227555 11.036445 2.958222 3.185778 7.850667 3.185778 11.036444 0.227555zM694.385778 534.92622267c3.072-2.958222 3.185778-7.964444 0.227555-11.036445-2.958222-3.072-7.964444-3.185778-11.036444-0.227555-3.072 2.958222-3.185778 7.964444-0.227556 11.036444 2.958222 3.072 7.964444 3.185778 11.036445 0.227556zM640.341333 478.60622267c3.072-2.958222 3.185778-7.964444 0.227556-11.036445-2.958222-3.072-7.964444-3.185778-11.036445-0.227555-3.072 2.958222-3.185778 7.964444-0.227555 11.036444 2.958222 3.072 7.850667 3.185778 11.036444 0.227556zM746.951111 537.65688867c0.910222-0.341333 1.820444-0.910222 2.616889-1.706666 0.796444-0.796444 1.365333-1.592889 1.820444-2.503112 1.251556-2.844444 0.682667-6.144-1.592888-8.533333-0.796444-0.796444-1.592889-1.365333-2.503112-1.820444-1.820444-0.796444-3.982222-0.796444-5.916444-0.113778-0.910222 0.341333-1.820444 0.910222-2.616889 1.706667-0.796444 0.796444-1.365333 1.592889-1.820444 2.503111-0.796444 1.820444-0.796444 3.982222-0.113778 5.916444 0.341333 0.910222 0.910222 1.820444 1.706667 2.616889 2.275556 2.389333 5.575111 3.072 8.419555 1.934222zM639.203556 533.78844467c3.072-2.958222 3.185778-7.964444 0.227555-11.036445-2.958222-3.072-7.964444-3.185778-11.036444-0.227555-3.072 2.958222-3.185778 7.964444-0.227556 11.036444 2.958222 3.072 7.850667 3.185778 11.036445 0.227556zM690.631111 591.81511067c0.910222-0.341333 1.820444-0.910222 2.616889-1.706666 0.796444-0.796444 1.365333-1.592889 1.820444-2.503111 1.251556-2.844444 0.682667-6.144-1.592888-8.533334-0.796444-0.796444-1.592889-1.365333-2.503112-1.820444-1.820444-0.796444-3.982222-0.796444-5.916444-0.113778-0.910222 0.341333-1.820444 0.910222-2.616889 1.706667-0.796444 0.796444-1.365333 1.592889-1.820444 2.503111-0.796444 1.820444-0.796444 3.982222-0.113778 5.916444 0.341333 0.910222 0.910222 1.820444 1.706667 2.616889 2.275556 2.389333 5.575111 2.958222 8.419555 1.934222zM638.065778 425.24444467c0.113778 0 0.341333-0.113778 0.455111-0.113778 0.113778 0 0.113778 0 0.227555-0.113778 0.910222-0.341333 1.820444-0.910222 2.616889-1.706666 1.479111-1.479111 2.275556-3.299556 2.389334-5.233778v-0.455111c0-1.934222-0.796444-3.868444-2.161778-5.347556-1.251556-1.365333-2.958222-2.161778-4.778667-2.389333h-0.796444c-2.048 0-3.982222 0.682667-5.575111 2.161778-1.137778 1.137778-1.934222 2.503111-2.275556 3.982222-0.113778 0.455111-0.113778 1.024-0.227555 1.479111 0 1.024 0.113778 2.048 0.455111 2.958222 0.341333 0.910222 0.910222 1.820444 1.706666 2.616889 0.227556 0.227556 0.568889 0.455111 0.796445 0.682667 2.275556 1.592889 4.778667 2.161778 7.168 1.479111zM861.184 483.04355567c3.072-2.958222 3.185778-7.964444 0.227556-11.036445-2.958222-3.072-7.964444-3.185778-11.036445-0.227555-3.072 2.958222-3.185778 7.964444-0.227555 11.036444 2.958222 3.072 7.850667 3.185778 11.036444 0.227556zM808.163556 371.54133367c3.072-2.958222 3.185778-7.964444 0.227555-11.036445-2.958222-3.072-7.964444-3.185778-11.036444-0.227555-3.072 2.958222-3.185778 7.964444-0.227556 11.036444 2.958222 3.072 7.964444 3.185778 11.036445 0.227556zM863.345778 372.56533367c3.072-2.958222 3.185778-7.964444 0.227555-11.036445-2.958222-3.072-7.964444-3.185778-11.036444-0.227555-3.072 2.958222-3.185778 7.964444-0.227556 11.036444 2.958222 3.185778 7.964444 3.299556 11.036445 0.227556zM809.301333 316.24533367c3.072-2.958222 3.185778-7.964444 0.227556-11.036445-2.958222-3.072-7.964444-3.185778-11.036445-0.227555-3.072 2.958222-3.185778 7.964444-0.227555 11.036444 2.958222 3.185778 7.850667 3.299556 11.036444 0.227556zM807.025778 426.72355567c3.072-2.958222 3.185778-7.964444 0.227555-11.036445-2.958222-3.072-7.964444-3.185778-11.036444-0.227555-3.072 2.958222-3.185778 7.964444-0.227556 11.036444 2.958222 3.072 7.964444 3.185778 11.036445 0.227556zM752.981333 370.40355567c3.072-2.958222 3.185778-7.964444 0.227556-11.036445-2.958222-3.072-7.964444-3.185778-11.036445-0.227555-3.072 2.958222-3.185778 7.964444-0.227555 11.036444 2.958222 3.072 7.850667 3.185778 11.036444 0.227556zM859.591111 429.45422267c0.910222-0.341333 1.820444-0.910222 2.616889-1.706667 0.796444-0.796444 1.365333-1.592889 1.820444-2.503111 1.251556-2.844444 0.682667-6.144-1.592888-8.533334-0.796444-0.796444-1.592889-1.365333-2.503112-1.820444-1.820444-0.796444-3.982222-0.796444-5.916444-0.113778-0.910222 0.341333-1.820444 0.910222-2.616889 1.706667-0.796444 0.796444-1.365333 1.592889-1.820444 2.503111-0.796444 1.820444-0.796444 3.982222-0.113778 5.916444 0.341333 0.910222 0.910222 1.820444 1.706667 2.616889 2.275556 2.389333 5.575111 3.072 8.419555 1.934223zM751.843556 425.58577767c3.072-2.958222 3.185778-7.964444 0.227555-11.036444-2.958222-3.072-7.964444-3.185778-11.036444-0.227556-3.072 2.958222-3.185778 7.964444-0.227556 11.036445 2.958222 3.072 7.964444 3.185778 11.036445 0.227555zM803.271111 483.61244467c0.910222-0.341333 1.820444-0.910222 2.616889-1.706667 0.796444-0.796444 1.365333-1.592889 1.820444-2.503111 1.251556-2.844444 0.682667-6.144-1.592888-8.533333-0.796444-0.796444-1.592889-1.365333-2.503112-1.820445-1.820444-0.796444-3.982222-0.796444-5.916444-0.113778-0.910222 0.341333-1.820444 0.910222-2.616889 1.706667-0.796444 0.796444-1.365333 1.592889-1.820444 2.503111-0.796444 1.820444-0.796444 3.982222-0.113778 5.916445 0.341333 0.910222 0.910222 1.820444 1.706667 2.616889 2.275556 2.389333 5.575111 2.958222 8.419555 1.934222zM750.250667 317.15555567c1.365333-0.227556 2.730667-0.910222 3.868444-2.048l0.568889-0.568889c1.137778-1.365333 1.706667-2.958222 1.820444-4.664889 0.113778-1.820444-0.455111-3.527111-1.592888-5.12-0.227556-0.227556-0.341333-0.455111-0.568889-0.682667-0.910222-1.024-2.048-1.592889-3.299556-2.048-0.227556-0.113778-0.455111-0.113778-0.682667-0.227555-0.682667-0.113778-1.479111-0.227556-2.275555-0.113778-1.706667 0.113778-3.413333 0.796444-4.778667 2.161778-0.796444 0.796444-1.365333 1.592889-1.820444 2.503111-0.455111 1.137778-0.682667 2.389333-0.568889 3.640889 0 0.227556 0 0.455111 0.113778 0.796444 0.227556 1.479111 0.910222 2.958222 2.048 4.096 0.227556 0.227556 0.568889 0.455111 0.796444 0.682667 1.820444 1.592889 4.096 2.048 6.371556 1.592889zM694.385778 371.19999967c1.251556-0.341333 2.389333-0.910222 3.299555-1.934222 1.365333-1.251556 2.161778-2.958222 2.389334-4.664889 0-0.227556 0-0.568889 0.113777-0.796444 0-0.682667-0.113778-1.365333-0.227555-2.048 0-0.227556-0.113778-0.455111-0.227556-0.568889 0-0.113778-0.113778-0.227556-0.113777-0.341333-0.113778-0.341333-0.341333-0.682667-0.455112-0.910223-0.113778-0.113778-0.227556-0.341333-0.341333-0.455111-0.227556-0.341333-0.568889-0.682667-0.796444-1.024-0.796444-0.796444-1.592889-1.365333-2.503111-1.820444-2.844444-1.251556-6.144-0.682667-8.533334 1.592889-0.568889 0.568889-1.024 1.137778-1.479111 1.820444-0.227556 0.455111-0.455111 0.910222-0.568889 1.365333-0.113778 0.227556-0.113778 0.455111-0.227555 0.682667-0.568889 2.503111 0.113778 5.12 2.048 7.054222 0.227556 0.227556 0.568889 0.455111 0.796444 0.682667 1.934222 1.479111 4.551111 1.934222 6.826667 1.365333zM865.621333 262.20088867c3.072-2.958222 3.185778-7.964444 0.227556-11.036444-2.958222-3.072-7.964444-3.185778-11.036445-0.227556-3.072 2.958222-3.185778 7.964444-0.227555 11.036445 2.958222 3.072 7.964444 3.185778 11.036444 0.227555zM864.483556 317.38311067c3.072-2.958222 3.185778-7.964444 0.227555-11.036444-2.958222-3.072-7.964444-3.185778-11.036444-0.227556-3.072 2.958222-3.185778 7.964444-0.227556 11.036445 2.958222 3.072 7.964444 3.185778 11.036445 0.227555zM866.759111 207.01866667c1.251556-1.251556 2.048-2.730667 2.275556-4.323556 0.341333-2.048-0.113778-4.209778-1.479111-6.030222-0.227556-0.227556-0.341333-0.455111-0.568889-0.682666-0.910222-1.024-2.048-1.592889-3.299556-2.048-0.227556-0.113778-0.455111-0.113778-0.682667-0.227556-0.682667-0.113778-1.479111-0.227556-2.275555-0.113778-1.706667 0.113778-3.413333 0.796444-4.778667 2.161778-0.568889 0.568889-1.024 1.137778-1.479111 1.820444-0.227556 0.455111-0.455111 0.910222-0.568889 1.365334-0.113778 0.227556-0.113778 0.455111-0.227555 0.682666-0.568889 2.503111 0.113778 5.12 2.048 7.054223 0.568889 0.568889 1.137778 1.024 1.706666 1.365333l0.113778 0.113778c1.137778 0.568889 2.389333 0.910222 3.640889 1.024 1.934222 0 3.982222-0.682667 5.575111-2.161778zM806.343111 263.11111067c1.479111-0.227556 2.958222-0.910222 4.096-2.048 1.365333-1.251556 2.161778-2.958222 2.389333-4.778666 0.227556-2.275556-0.455111-4.551111-2.161777-6.257778-1.820444-1.934222-4.551111-2.730667-6.940445-2.275556-0.455111 0.113778-1.024 0.227556-1.479111 0.455112l-1.365333 0.682666c-0.455111 0.227556-0.910222 0.568889-1.251556 1.024-0.568889 0.568889-1.024 1.137778-1.479111 1.820445-0.227556 0.455111-0.455111 0.910222-0.568889 1.365333-0.113778 0.227556-0.113778 0.455111-0.227555 0.682667-0.568889 2.503111 0.113778 5.12 2.048 7.054222 0.568889 0.568889 1.137778 1.024 1.706666 1.365333l0.113778 0.113778c1.592889 0.796444 3.413333 1.137778 5.12 0.796444z" fill="#231B3B" p-id="965"></path><path d="M542.037333 276.08177767c-44.600889 44.600889-44.600889 117.304889 0 162.019556 21.845333 21.845333 50.744889 33.564444 80.782223 33.564444 8.647111 0 17.408-1.024 26.055111-2.958222 20.935111-4.778667 39.936-15.473778 55.182222-30.606222 15.587556-15.587556 26.168889-35.043556 30.833778-56.433778 8.419556-38.343111-3.185778-77.824-30.947556-105.472-44.487111-44.828444-117.304889-44.828444-161.905778-0.113778zM673.564444 368.12799967c-2.161778 9.557333-6.940444 18.432-13.994666 25.486223-6.826667 6.826667-15.473778 11.605333-24.803556 13.767111-17.635556 4.096-35.612444-1.137778-48.241778-13.767111-20.138667-20.138667-20.138667-52.906667 0-73.045334 10.126222-10.126222 23.324444-15.132444 36.522667-15.132444s26.510222 5.006222 36.522667 15.132444c12.515556 12.401778 17.749333 30.264889 13.994666 47.559111z m0 0" fill="#592B0C" p-id="966"></path><path d="M894.065778 411.02222267l-15.928889-213.560889c-3.754667-51.2-45.283556-92.615111-96.597333-96.369778l-212.764445-15.246222c-38.570667-2.730667-76.913778 11.377778-104.334222 38.912l-340.195556 340.081777c-52.224 52.224-52.224 137.329778 0 189.553778l201.386667 201.386667c25.258667 25.372444 58.936889 39.253333 94.776889 39.253333s69.518222-13.880889 94.776889-39.253333l339.968-339.968c27.648-27.648 41.870222-65.763556 38.912-104.789333z m-83.285334 60.302222L470.698667 811.29244467c-27.761778 27.761778-72.931556 27.761778-100.693334 0l-201.386666-201.386667c-27.761778-27.761778-27.761778-72.931556 0-100.693333l340.195555-340.081778c13.312-13.425778 31.402667-20.821333 50.289778-20.821333 1.706667 0 3.413333 0.113778 5.12 0.227555L777.102222 163.89688867c20.366222 1.479111 36.864 17.863111 38.343111 38.229334l15.928889 213.560888c1.592889 20.707556-5.916444 40.96-20.593778 55.637334z m0 0" fill="#592B0C" p-id="967"></path></svg>